# xmcd CD database file
#
# Track frame offsets:
#	183
#	7833
#	21108
#	31458
#	37533
#	47058
#	53358
#	62883
#	75708
#	86958
#	98733
#	110958
#	123783
#	128658
#	138933
#	148083
#	151233
#	153558
#	154833
#	160383
#	168033
#	180633
#	189708
#	194433
#	199683
#	206883
#	211083
#	216258
#	220758
#	224208
#	227733
#	238233
#	248958
#	254733
#	261183
#	266808
#	274383
#	283308
#	287058
#	291258
#	295608
#	300183
#	307308
#
# Disc length: 4213 seconds
#
# Revision: 0
# Processed by: cddbd v1.5.1PL0 Copyright (c) Steve Scherf et al.
# Submitted via: CDex 1.51
#
DISCID=9710732b
DTITLE=Sonoton Authentic Series - SAS 046 - Authentic  South America 5 - The Amason
DYEAR=1993
DGENRE=Contentum
TTITLE0=Arara song
TTITLE1=Healing
TTITLE2=Guajara mirim
TTITLE3=Kuarup
TTITLE4=I like Rondonia
TTITLE5=Juruna song
TTITLE6=Untitled
TTITLE7=Starred night
TTITLE8=Morena Bonita
TTITLE9=Rubber tapper's song
TTITLE10=Rubber tapper's party
TTITLE11=Kuluta flutes
TTITLE12=Kuluta dance
TTITLE13=Kids playing in the hut
TTITLE14=Pana rubber
TTITLE15=Seed whistle 1
TTITLE16=Seed whistle 2
TTITLE17=Seed whistle 3
TTITLE18=Seed whistle 4
TTITLE19=Holy mother hymn
TTITLE20=Peasant's song
TTITLE21=Gold spot
TTITLE22=Cuica
TTITLE23=Gathering wood
TTITLE24=Assurini bass
TTITLE25=Reahu ritual
TTITLE26=Surui hunt
TTITLE27=Healing flutes
TTITLE28=Kâkâ
TTITLE29=Seed whistle music
TTITLE30=Flute music
TTITLE31=Effect of Yakoana
TTITLE32=Oronao children
TTITLE33=Piqui seeds
TTITLE34=Belt of rattles
TTITLE35=Bottles, bricks and cans
TTITLE36=Welcome song
TTITLE37=Song to build a house
TTITLE38=Song of Timbo
TTITLE39=Heri danse
TTITLE40=Tempati
TTITLE41=Hoeiete
TTITLE42=Chicha festivity
EXTD=YEAR: 1993
EXTT0=
EXTT1=
EXTT2=
EXTT3=
EXTT4=
EXTT5=
EXTT6=
EXTT7=
EXTT8=
EXTT9=
EXTT10=
EXTT11=
EXTT12=
EXTT13=
EXTT14=
EXTT15=
EXTT16=
EXTT17=
EXTT18=
EXTT19=
EXTT20=
EXTT21=
EXTT22=
EXTT23=
EXTT24=
EXTT25=
EXTT26=
EXTT27=
EXTT28=
EXTT29=
EXTT30=
EXTT31=
EXTT32=
EXTT33=
EXTT34=
EXTT35=
EXTT36=
EXTT37=
EXTT38=
EXTT39=
EXTT40=
EXTT41=
EXTT42=
PLAYORDER=
